<svg width="31" height="22" viewBox="0 0 31 22" fill="none" xmlns="http://www.w3.org/2000/svg">
<path fill-rule="evenodd" clip-rule="evenodd" d="M1.8165 4.93827C1.81644 5.76685 2.1459 6.56151 2.73238 7.14743C3.31886 7.73336 4.11432 8.06256 4.94379 8.06261C5.77325 8.06267 6.56876 7.73357 7.15531 7.14771C7.74187 6.56186 8.07142 5.76725 8.07147 4.93867C8.07153 4.1101 7.74207 3.31544 7.15559 2.72951C6.56911 2.14359 5.77364 1.81439 4.94418 1.81433C4.11472 1.81428 3.31921 2.14338 2.73266 2.72923C2.1461 3.31508 1.81655 4.1097 1.8165 4.93827ZM4.94367 9.87663C3.88525 9.87644 2.85484 9.53692 2.00403 8.90802C1.15322 8.27912 0.526938 7.39404 0.217326 6.383C-0.0922855 5.37196 -0.0688788 4.28835 0.284103 3.2916C0.637084 2.29484 1.301 1.43758 2.17818 0.845918C3.05535 0.25426 4.09947 -0.0405458 5.15691 0.00487441C6.21435 0.0502947 7.22928 0.433543 8.05237 1.09823C8.87547 1.76292 9.46327 2.67396 9.7293 3.6973C9.99532 4.72064 9.92553 5.80226 9.53018 6.78301L11.4752 8.08117C11.4609 8.12661 11.4475 8.1723 11.4348 8.21822L11.124 9.32677L10.4117 9.8024L8.40619 8.46393C7.5143 9.33662 6.29152 9.87672 4.94367 9.87663ZM1.81573 17.062C1.81578 16.2334 2.14533 15.4388 2.73189 14.8529C3.31844 14.2671 4.11395 13.938 4.94341 13.938C5.77287 13.9381 6.56834 14.2673 7.15482 14.8532C7.7413 15.4391 8.07076 16.2338 8.0707 17.0624C8.07065 17.8909 7.7411 18.6855 7.15454 19.2714C6.56799 19.8572 5.77248 20.1863 4.94302 20.1863C4.11356 20.1862 3.31809 19.857 2.73161 19.2711C2.14513 18.6852 1.81567 17.8905 1.81573 17.062ZM4.94353 12.124C3.88604 12.124 2.85644 12.4628 2.00595 13.0906C1.15546 13.7184 0.528912 14.6021 0.218332 15.6118C-0.0922474 16.6216 -0.0704886 17.7043 0.280412 18.7008C0.631314 19.6973 1.29286 20.5551 2.16789 21.1483C3.04292 21.7414 4.0853 22.0387 5.14194 21.9963C6.19858 21.954 7.21378 21.5743 8.03842 20.913C8.86307 20.2517 9.45369 19.3437 9.72355 18.3223C9.99341 17.3009 9.92827 16.22 9.53771 15.2384L30.1659 1.50056L28.247 1.6586C25.541 1.94286 22.9205 2.7709 20.5431 4.09292L14.3384 7.53916C14.1054 7.66917 13.9005 7.84406 13.7356 8.05372C13.5708 8.26337 13.4492 8.50361 13.3779 8.76054L12.8673 10.5866L8.42201 13.5553C7.49765 12.6374 6.24689 12.1227 4.94353 12.124ZM14.3137 14.4727L14.338 14.4868L20.5423 17.9339C22.9195 19.2562 25.5399 20.0846 28.2458 20.3692L27.9687 19.0071L25.3466 17.362L17.6754 12.2256L14.3137 14.4727Z" fill="#8162FF"/>
</svg>
